<?xml version="1.0" encoding="utf-8"?>
<!-- Generator: Adobe Illustrator 28.2.0, SVG Export Plug-In . SVG Version: 6.00 Build 0)  -->
<svg version="1.0" id="katman_1" xmlns="http://www.w3.org/2000/svg" xmlns:xlink="http://www.w3.org/1999/xlink" x="0px" y="0px"
	 viewBox="0 0 1190.6 841.9" style="enable-background:new 0 0 1190.6 841.9;" xml:space="preserve" width="50" height="50" stroke="#000000" stroke-width="25">
<style type="text/css">
	.st0{fill:#1D1D1B;}
</style>
<g>
	<path class="st0" d="M386.9,355.2c-13.5-18-35-28.1-57.4-27c-14.8,0-80.6,0-118.7,0h-99.9v36.1c80.4,0,175.7,0,217.6,0
		c7.4-0.6,14.8,1.5,20.6,6.1c5.5,4.7,7.4,12.4,4.9,19.1c-3.9,10.7-14.8,13.4-25.5,13.5c-16.6,0-62,0-96,0c-83.3,0-47.2,0-121.6,0
		v35.5c80.3,0,175.9,0,217.6,0c12.9,0,26.6,4.7,26.6,19.3c0,14.5-13.7,19.1-26.6,19.3c-41.6,0-137.1,0-217.6,0V513
		c80.6,0,186.1,0,218.6,0c22.5,1,44-9.2,57.4-27.2c13.8-20.9,10.6-48.7-7.7-65.8C397,403.1,400.2,375.9,386.9,355.2z"/>
	<path class="st0" d="M1043.1,349.4c-21.5-14.4-47-21.7-72.9-20.8c-21.2,0-53.3,0-81.6-0.9h-93.7v36.5c70.2,0,118.7,0,173.7,0.9
		c16.8-0.7,33.3,3.6,47.6,12.3c24.1,16.4,30.3,49.1,13.9,73.2c-3.7,5.5-8.4,10.2-13.9,13.9c-14.5,9-31.3,13.4-48.4,12.8
		c-54.2,1.5-103.9,1-173.5,1v35.9c70.6,0,121.4,0,175.3-1c25.8,0.9,51.3-6.3,72.9-20.5c39.6-27.9,49.2-82.6,21.3-122.2
		c-5.8-8.3-13-15.5-21.3-21.3L1043.1,349.4z"/>
	<path class="st0" d="M505,408.8c-18.8,0-24.8-6.4-24.9-25.1c-0.1-18.7,0-37.8,0-55.5h-41.6c0,17.8,0,53.7,0,71.1
		c1.3,33.8,12.5,44.5,46.9,45.6c23.9,0,42.9,0,76,0v-36.1C535.3,408.8,524.6,408.8,505,408.8z"/>
	<path class="st0" d="M710.4,383.7c0,18.3-6.1,24.2-24.9,24.5c-9.1,0-32.7,0-52.1,0h-53.6V514h48.7v-69.3h4.9c25.4,0,57,0,69,0
		c36.7-1,47.8-11.4,49.1-45.6c0-4.5,0-10.2,0-16.6v-54.9h-41.1C710.4,345.7,710.6,365.9,710.4,383.7z"/>
</g>
</svg>
