<?xml version="1.0" encoding="utf-8"?>
<!-- Svg Vector Icons : http://www.onlinewebfonts.com/icon -->
<!DOCTYPE svg PUBLIC "-//W3C//DTD SVG 1.1//EN" "http://www.w3.org/Graphics/SVG/1.1/DTD/svg11.dtd">
<svg version="1.1" xmlns="http://www.w3.org/2000/svg" xmlns:xlink="http://www.w3.org/1999/xlink" x="0px" y="0px" viewBox="0 0 256 150" enable-background="new 0 0 256 150" xml:space="preserve">
<metadata> Svg Vector Icons : http://www.onlinewebfonts.com/icon </metadata>
<g transform="translate(0, -53)">
  <g>
    <path fill="#000000" d="M148.1,112.1l-15.3,12.4l-0.6-12.4h-16.5l0.6,31.9h16.5l37.8-31.9H148.1z"/>
    <path fill="#000000" d="M83.8,116.8c-2.4,1.8-5.3,4.1-5.9,4.7l-23.6,21.2l17.1-30.7H53.7l-5.3,8.8l0,0c-0.6,0-1.8,0-3,0c-1.2,0-2.4,0-3.5,0l5.3-9.4H27.7L10,144h18.3l4.1-7.7c1.2-2.4,4.1-4.7,6.5-4.7c1.2,0,2.4,0,3.5,0L34.8,144h17.1H53h17.7l4.1-4.1c1.2-1.2,4.1-2.4,7.7-2.4l0,0c1.8,0,2.9,0,4.1,0l-3,6.5h14.8l15.3-32.5h-13.6C93.8,112.1,86.1,114.4,83.8,116.8z M93.8,123.3l-2.4,4.7h-2.9C89.1,126.8,92,124.5,93.8,123.3z"/>
    <path fill="#000000" d="M187.6,112.1c-7.1,0-14.2,3-16.5,4.7c-2.4,1.8-5.3,4.1-5.9,4.7l-26,22.4h18.9l4.1-4.1c1.2-1.2,4.1-2.4,7.7-2.4l0,0c1.8,0,2.9,0,4.1,0l-3,6.5h14.8l15.3-32.5h-13.6L187.6,112.1L187.6,112.1z M181.1,123.3l-2.4,4.7h-3.5C176.4,126.8,179.3,124.5,181.1,123.3z"/>
    <path fill="#000000" d="M214.7,132.7c1.2-2.4,5.3-9.4,6.5-11.2c1.8-3.5,5.9-5.3,5.9-5.3l8.3-4.1h-26.6l-0.6,1.2c0,0-9.4,16.5-10.6,18.9c-2.4,4.1-1.8,8.3,1.8,10.6c2.4,1.2,7.1,1.8,8.3,1.8h27.7l10.6-11.2h-31.3V132.7z"/>
  </g>
</g>
</svg>
